name analog
datacolumns 19
datarows 23
range 0.534 0.545
endheader
time	ground_force_vx	ground_force_vy	ground_force_vz	ground_force_px	ground_force_py	ground_force_pz	l_ground_force_vx	l_ground_force_vy	l_ground_force_vz	l_ground_force_px	l_ground_force_py	l_ground_force_pz	ground_torque_x	ground_torque_y	ground_torque_z	l_ground_torque_x	l_ground_torque_y	l_ground_torque_z
0.534	-0.0	-0.0	-0.0	4.090512275695801	25.9121208190918	-303.0746154785156	4.599709510803223	-38.015892028808594	-419.88092041015625	-0.0	-0.0	-0.0	-0.0	-0.0	-0.0	113723.875	-40742.02734375	3302.6943359375
0.5345	-0.0	-0.0	-0.0	3.631444215774536	26.17939567565918	-305.9057006835937	4.156232833862305	-37.82791519165039	-419.7321166992188	-0.0	-0.0	-0.0	-0.0	-0.0	-0.0	113167.015625	-40334.59375	3116.2958984375
0.535	-0.0	-0.0	-0.0	4.370365619659424	26.70105743408203	-307.3180847167969	4.182503700256348	-37.86392974853516	-417.9860229492188	-0.0	-0.0	-0.0	-0.0	-0.0	-0.0	112978.359375	-39917.734375	3057.01611328125
0.5355	-0.0	-0.0	-0.0	4.205855369567871	26.688838958740234	-309.5395812988281	3.928065776824951	-37.335391998291016	-416.3838806152344	-0.0	-0.0	-0.0	-0.0	-0.0	-0.0	112657.796875	-39815.87109375	2938.773193359375
0.536	-0.0	-0.0	-0.0	4.485805511474609	27.0827693939209	-309.789794921875	3.2693333625793457	-37.52482986450195	-414.8901672363281	-0.0	-0.0	-0.0	-0.0	-0.0	-0.0	112430.2734375	-39702.9921875	2713.556884765625
0.5365	-0.0	-0.0	-0.0	4.970392227172852	26.713747024536133	-311.15155029296875	3.193588256835937	-37.37215805053711	-415.1412963867188	-0.0	-0.0	-0.0	-0.0	-0.0	-0.0	112365.5234375	-39565.4453125	2721.870361328125
0.537	-0.0	-0.0	-0.0	4.881100177764893	26.67547035217285	-310.3948059082031	2.991062879562378	-37.39784622192383	-414.09381103515625	-0.0	-0.0	-0.0	-0.0	-0.0	-0.0	112120.7421875	-39311.421875	2586.085693359375
0.5375	-0.0	-0.0	-0.0	5.097919464111328	26.70113182067871	-311.5549011230469	3.0416810512542725	-37.12022018432617	-413.9956970214844	-0.0	-0.0	-0.0	-0.0	-0.0	-0.0	112058.046875	-39532.9921875	2581.939208984375
0.538	-0.0	-0.0	-0.0	5.1353840827941895	26.62482070922852	-310.95001220703125	3.0921976566314697	-37.271751403808594	-413.1460876464844	-0.0	-0.0	-0.0	-0.0	-0.0	-0.0	111801.8125	-39405.84375	2675.207763671875
0.5385	-0.0	-0.0	-0.0	5.084999084472656	26.20433807373047	-310.5969543457031	3.586310148239136	-37.03193283081055	-412.497802734375	-0.0	-0.0	-0.0	-0.0	-0.0	-0.0	111872.921875	-39353.70703125	2701.01611328125
0.539	-0.0	-0.0	-0.0	5.238490581512451	26.49761390686035	-310.137451171875	3.0797793865203857	-37.031776428222656	-410.9020690917969	-0.0	-0.0	-0.0	-0.0	-0.0	-0.0	111607.65625	-39324.15625	2641.42138671875
0.5395	-0.0	-0.0	-0.0	4.99578857421875	26.80349922180176	-310.3421325683594	3.408425092697144	-36.7797737121582	-410.2040710449219	-0.0	-0.0	-0.0	-0.0	-0.0	-0.0	111206.875	-39314.4453125	2696.68017578125
0.54	-0.0	-0.0	-0.0	4.703502655029297	26.21665382385254	-310.74957275390625	3.117285251617432	-36.69240951538086	-409.5548706054688	-0.0	-0.0	-0.0	-0.0	-0.0	-0.0	111352.1484375	-39330.75	2772.70849609375
0.5405	-0.0	-0.0	-0.0	4.446578502655029	26.459476470947266	-309.6417236328125	3.0161666870117188	-36.70380401611328	-408.2599792480469	-0.0	-0.0	-0.0	-0.0	-0.0	-0.0	111003.390625	-39220.37109375	2722.30322265625
0.541	-0.0	-0.0	-0.0	4.221176624298096	26.623687744140625	-312.3635559082031	3.193588256835937	-36.36268997192383	-407.8630065917969	-0.0	-0.0	-0.0	-0.0	-0.0	-0.0	110870.5546875	-38927.89453125	2683.781982421875
0.5415	-0.0	-0.0	-0.0	4.091575622558594	26.994415283203125	-312.7648010253906	3.2684085369110107	-36.263816833496094	-406.2619018554688	-0.0	-0.0	-0.0	-0.0	-0.0	-0.0	110601.109375	-38907.05859375	2646.007568359375
0.542	-0.0	-0.0	-0.0	3.898737907409668	27.61838150024414	-314.4828796386719	2.8508856296539307	-36.22398376464844	-405.015869140625	-0.0	-0.0	-0.0	-0.0	-0.0	-0.0	110341.703125	-38642.00390625	2730.660888671875
0.5425	-0.0	-0.0	-0.0	3.758817434310913	27.312484741210938	-318.1096496582031	3.332686185836792	-35.73212814331055	-404.07177734375	-0.0	-0.0	-0.0	-0.0	-0.0	-0.0	109646.1875	-38572.12890625	2756.083740234375
0.543	-0.0	-0.0	-0.0	3.50300669670105	27.654199600219727	-321.7586669921875	3.2055742740631104	-35.55544662475586	-401.9773254394531	-0.0	-0.0	-0.0	-0.0	-0.0	-0.0	109181.8984375	-38081.296875	2612.504150390625
0.5435	-0.0	-0.0	-0.0	3.1342122554779053	27.92148208618164	-325.03179931640625	3.0280990600585938	-34.8896484375	-399.1844482421875	-0.0	-0.0	-0.0	-0.0	-0.0	-0.0	108293.828125	-37585.63671875	2476.223876953125
0.544	-0.0	-0.0	-0.0	2.73857045173645	28.599102020263672	-329.51690673828125	2.812172174453736	-34.30422592163086	-398.18408203125	-0.0	-0.0	-0.0	-0.0	-0.0	-0.0	107611.59375	-37299.296875	2578.979736328125
0.5445	-0.0	-0.0	-0.0	2.4086837768554688	28.82415580749512	-332.6346130371094	2.634634733200073	-34.460304260253906	-394.284912109375	-0.0	-0.0	-0.0	-0.0	-0.0	-0.0	106616.3046875	-36893.2734375	2518.502685546875
0.545	-0.0	-0.0	-0.0	2.850850820541382	29.19601821899414	-334.56890869140625	2.410238265991211	-33.8388786315918	-391.6097106933594	-0.0	-0.0	-0.0	-0.0	-0.0	-0.0	106258.7109375	-36390.51953125	2251.50634765625
